<svg aria-hidden="true" style="position:absolute;width:0;height:0" width="24" height="24" xmlns="http://www.w3.org/2000/svg" overflow="hidden"><defs><symbol id="external-link" viewBox="0 0 24 24"><path fill-rule="evenodd" clip-rule="evenodd" d="M24 1.333A1.334 1.334 0 0 0 22.667 0H16a1.333 1.333 0 1 0 0 2.667h3.448L16.635 5.48a8.01 8.01 0 0 1 1.886 1.884l2.812-2.812V8A1.333 1.333 0 0 0 24 8V1.333ZM16.635 5.48A7.964 7.964 0 0 0 12 4H2.667A2.667 2.667 0 0 0 0 6.667v14.666A2.667 2.667 0 0 0 2.667 24h14.666A2.667 2.667 0 0 0 20 21.333V12a7.952 7.952 0 0 0-1.48-4.636l-8.244 8.245a1.334 1.334 0 0 1-1.885-1.885l8.245-8.245-.001.001Z" fill="currentcolor"/></symbol></defs></svg>